<?xml version="1.0" encoding="UTF-8" standalone="no"?>
<svg xmlns:dc="http://purl.org/dc/elements/1.1/" xmlns:cc="http://creativecommons.org/ns#" xmlns:rdf="http://www.w3.org/1999/02/22-rdf-syntax-ns#" xmlns:svg="http://www.w3.org/2000/svg" xmlns="http://www.w3.org/2000/svg" xmlns:sodipodi="http://sodipodi.sourceforge.net/DTD/sodipodi-0.dtd" xmlns:inkscape="http://www.inkscape.org/namespaces/inkscape" width="1024" height="512" id="svg2" version="1.1" inkscape:version="0.48.4 r9939" sodipodi:docname="Flag_of_Canada_(Pantone).svg">
  <metadata id="metadata14">
    <rdf:RDF>
      <cc:Work rdf:about="">
        <dc:format>image/svg+xml</dc:format>
        <dc:type rdf:resource="http://purl.org/dc/dcmitype/StillImage"/>
      </cc:Work>
    </rdf:RDF>
  </metadata>
  <defs id="defs12"/>
  <sodipodi:namedview pagecolor="#ffffff" bordercolor="#666666" borderopacity="1" objecttolerance="10" gridtolerance="10" guidetolerance="10" inkscape:pageopacity="0" inkscape:pageshadow="2" inkscape:window-width="678" inkscape:window-height="480" id="namedview10" showgrid="false" inkscape:zoom="0.316" inkscape:cx="745.46585" inkscape:cy="250" inkscape:window-x="0" inkscape:window-y="0" inkscape:window-maximized="0" inkscape:current-layer="svg2" fit-margin-top="0" fit-margin-left="0" fit-margin-right="0" fit-margin-bottom="0"/>
  <rect width="1024" height="512" id="rect4" style="fill:#d52b1e;fill-opacity:1" x="0" y="0"/>
  <rect width="512" height="512" x="256" id="rect6" y="0" style="fill:#ffffff"/>
  <path d="m 511.99209,48 -34.93183,65.1523 c -3.96376,7.08097 -11.06562,6.42419 -18.16749,2.46925 l -25.28972,-13.09551 18.84882,100.07256 c 3.96376,18.2827 -8.75376,18.2827 -15.02991,10.37758 l -44.13548,-49.40901 -7.16532,25.09107 c -0.82628,3.29499 -4.45932,6.75578 -9.90973,5.93163 l -55.80982,-11.73414 14.65881,53.29383 c 3.13806,11.85847 5.58582,16.76828 -3.168,19.8959 L 312,265.39483 l 96.07298,78.03738 c 3.80262,2.95067 5.72386,8.26061 4.3701,13.06839 l -8.40843,27.5938 c 33.07935,-3.81308 62.71896,-9.54976 95.81506,-13.08282 2.92171,-0.3119 7.81299,4.50978 7.79293,7.89564 L 503.25968,480 l 16.08334,0 -2.5317,-100.87598 c -0.0202,-3.38586 4.41724,-8.42434 7.33895,-8.11244 33.0961,3.53307 62.73575,9.26974 95.81509,13.08282 l -8.40841,-27.5938 c -1.35376,-4.80778 0.56747,-10.11772 4.37009,-13.06839 L 712,265.39483 692.1076,256.04546 c -8.75384,-3.12762 -6.30608,-8.03743 -3.16802,-19.8959 l 14.65884,-53.29383 -55.80985,11.73414 c -5.45041,0.82415 -9.08345,-2.63664 -9.90976,-5.93163 l -7.1653,-25.09107 -44.13546,49.40901 c -6.27617,7.90512 -18.9937,7.90512 -15.02994,-10.37758 l 18.84879,-100.07256 -25.28967,13.09551 c -7.10204,3.95494 -14.20373,4.61172 -18.1675,-2.46925" id="path8" style="fill:#d52b1e;fill-opacity:1" inkscape:connector-curvature="0"/>
</svg>